<svg viewBox="0 0 820 470" xmlns="http://www.w3.org/2000/svg" font-family="-apple-system, BlinkMacSystemFont, 'Segoe UI', Roboto, sans-serif">
  <defs>
    <marker id="arrowhead" markerWidth="9" markerHeight="9" refX="6" refY="3" orient="auto">
      <path d="M0,0 L6,3 L0,6 Z" fill="#dc2626"/>
    </marker>
  </defs>
  <rect width="820" height="470" fill="#ffffff"/>
  <text x="40" y="42" font-size="21" font-weight="700" fill="#0f172a">측정 환경이 결론을 바꿨다 — 재고 경합 p95</text>
  <text x="40" y="66" font-size="14" fill="#64748b">같은 워크로드(동시 1,000 · 재고 10 품절 경합) · 낮을수록 빠름</text>

  <line x1="90" y1="380" x2="760" y2="380" stroke="#cbd5e1" stroke-width="1"/>
  <text x="80" y="385" font-size="12" fill="#94a3b8" text-anchor="end">0s</text>
  <line x1="90" y1="322" x2="760" y2="322" stroke="#e2e8f0" stroke-width="1"/>
  <text x="80" y="327" font-size="12" fill="#94a3b8" text-anchor="end">0.5s</text>
  <line x1="90" y1="264" x2="760" y2="264" stroke="#e2e8f0" stroke-width="1"/>
  <text x="80" y="269" font-size="12" fill="#94a3b8" text-anchor="end">1.0s</text>
  <line x1="90" y1="206" x2="760" y2="206" stroke="#e2e8f0" stroke-width="1"/>
  <text x="80" y="211" font-size="12" fill="#94a3b8" text-anchor="end">1.5s</text>
  <line x1="90" y1="148" x2="760" y2="148" stroke="#e2e8f0" stroke-width="1"/>
  <text x="80" y="153" font-size="12" fill="#94a3b8" text-anchor="end">2.0s</text>
  <line x1="90" y1="90" x2="760" y2="90" stroke="#e2e8f0" stroke-width="1"/>
  <text x="80" y="95" font-size="12" fill="#94a3b8" text-anchor="end">2.5s</text>

  <line x1="425" y1="90" x2="425" y2="380" stroke="#e2e8f0" stroke-width="1" stroke-dasharray="4 4"/>

  <rect x="210" y="119" width="70" height="261" fill="#1d4ed8"/>
  <text x="245" y="111" font-size="15" font-weight="700" fill="#1d4ed8" text-anchor="middle">2.25s</text>
  <rect x="290" y="213" width="70" height="167" fill="#94a3b8"/>
  <text x="325" y="205" font-size="15" font-weight="700" fill="#64748b" text-anchor="middle">1.44s</text>

  <rect x="490" y="221" width="70" height="159" fill="#1d4ed8"/>
  <text x="525" y="213" font-size="15" font-weight="700" fill="#1d4ed8" text-anchor="middle">1.37s</text>
  <rect x="570" y="208" width="70" height="172" fill="#94a3b8"/>
  <text x="605" y="200" font-size="15" font-weight="700" fill="#64748b" text-anchor="middle">1.48s</text>

  <path d="M 268 118 C 360 150, 420 200, 505 219" fill="none" stroke="#dc2626" stroke-width="2" stroke-dasharray="6 4" marker-end="url(#arrowhead)"/>
  <text x="388" y="168" font-size="13" font-weight="700" fill="#dc2626" text-anchor="middle">조건부 −0.88s</text>
  <text x="388" y="185" font-size="11.5" fill="#dc2626" text-anchor="middle">오염 제거</text>

  <text x="285" y="404" font-size="14" font-weight="600" fill="#334155" text-anchor="middle">호스트 측정</text>
  <text x="285" y="423" font-size="11.5" fill="#94a3b8" text-anchor="middle">SQL 로그 on · 공유 DB</text>
  <text x="565" y="404" font-size="14" font-weight="600" fill="#334155" text-anchor="middle">격리 측정</text>
  <text x="565" y="423" font-size="11.5" fill="#94a3b8" text-anchor="middle">로그 off · tmpfs DB</text>

  <rect x="602" y="100" width="14" height="14" rx="2" fill="#1d4ed8"/>
  <text x="622" y="112" font-size="12.5" fill="#334155">조건부 UPDATE</text>
  <rect x="602" y="122" width="14" height="14" rx="2" fill="#94a3b8"/>
  <text x="622" y="134" font-size="12.5" fill="#334155">Redis+Lua</text>

  <text x="40" y="450" font-size="12.5" fill="#475569">호스트에선 Redis(1.44s)가 조건부(2.25s)보다 빨라 보였으나 — 원인은 조건부만 겪는 SQL DEBUG 로깅 오염.</text>
  <text x="40" y="466" font-size="12.5" fill="#475569">격리 스택에서 조건부가 1.37s 로 급락해 "Redis 우위"가 사라졌다. 측정 오염을 걷어내니 결론이 바뀐 사례.</text>
</svg>
